<svg width="51" height="52" viewBox="0 0 51 52" fill="none" xmlns="http://www.w3.org/2000/svg">
<g clip-path="url(#clip0_1285_386)">
<path d="M0 0H51V52H0V0Z" fill="#F0DB4F"/>
<path d="M46.8258 39.5981C46.4525 37.2255 44.9351 35.2335 40.4411 33.3749C38.8801 32.6433 37.1397 32.1194 36.6209 30.9133C36.4367 30.2114 36.4125 29.816 36.5288 29.3909C36.8633 28.0118 38.4777 27.5817 39.7575 27.9772C40.5817 28.2589 41.3622 28.9065 41.8324 29.9395C44.0334 28.4864 44.0285 28.4962 45.5653 27.4978C45.003 26.608 44.7024 26.1977 44.334 25.8172C43.0105 24.3096 41.2071 23.5335 38.3225 23.5928C37.8232 23.6571 37.3191 23.7262 36.8197 23.7905C35.3799 24.1613 34.0079 24.9324 33.2032 25.9654C30.7889 28.7582 31.4773 33.6468 34.4151 35.6586C37.3093 37.8731 41.5609 38.3772 42.1039 40.4483C42.6323 42.9841 40.2763 43.8046 37.9347 43.513C36.2089 43.1472 35.249 42.2525 34.2115 40.6263C32.3015 41.7533 32.3015 41.7533 30.3381 42.905C30.8035 43.943 31.2931 44.4126 32.0736 45.3122C35.7677 49.1331 45.0127 48.9453 46.6707 43.162C46.7385 42.9643 47.1846 41.6395 46.8258 39.5981ZM27.725 23.8992H22.9547C22.9547 28.1008 22.9353 32.2726 22.9353 36.4741C22.9353 39.1483 23.0711 41.6 22.6445 42.3513C21.9464 43.8292 20.1381 43.6464 19.3139 43.3596C18.4753 42.9395 18.0486 42.3414 17.5542 41.4962C17.4184 41.254 17.3166 41.0662 17.2826 41.0513C15.9883 41.857 14.6987 42.6676 13.4043 43.4734C14.0491 44.8228 14.9993 45.9943 16.2161 46.7555C18.034 47.8676 20.4774 48.2087 23.0323 47.6106C24.6951 47.1163 26.1301 46.0932 26.8815 44.5361C27.9674 42.4947 27.7347 40.0232 27.725 37.2897C27.7493 32.8312 27.725 28.3726 27.725 23.8992Z" fill="#323330"/>
</g>
<defs>
<clipPath id="clip0_1285_386">
<rect width="51" height="52" fill="white"/>
</clipPath>
</defs>
</svg>
